<svg width="65" height="65" viewBox="0 0 65 65" fill="none" xmlns="http://www.w3.org/2000/svg">
<rect x="0.722656" y="0.233398" width="64" height="64" rx="8" fill="#F7FBFF"/>
<g clip-path="url(#clip0_1626_9756)">
<path fill-rule="evenodd" clip-rule="evenodd" d="M37.8203 26.5879C37.5219 26.5879 37.2358 26.7064 37.0248 26.9174C36.8138 27.1283 36.6953 27.4145 36.6953 27.7129V36.7129C36.6953 37.0113 36.8138 37.2974 37.0248 37.5084C37.2358 37.7193 37.5219 37.8379 37.8203 37.8379C38.1187 37.8379 38.4048 37.7193 38.6158 37.5084C38.8268 37.2974 38.9453 37.0113 38.9453 36.7129V27.7129C38.9453 27.4145 38.8268 27.1283 38.6158 26.9174C38.4048 26.7064 38.1187 26.5879 37.8203 26.5879Z" fill="#0066D4"/>
<path fill-rule="evenodd" clip-rule="evenodd" d="M32.1273 27.3183C32.0485 27.1011 31.9047 26.9135 31.7155 26.7809C31.5263 26.6483 31.3009 26.5771 31.0698 26.5771C30.8388 26.5771 30.6133 26.6483 30.4241 26.7809C30.235 26.9135 30.0911 27.1011 30.0123 27.3183L26.6373 36.3183C26.5856 36.4572 26.5618 36.6049 26.5671 36.753C26.5725 36.9011 26.607 37.0466 26.6686 37.1814C26.7303 37.3161 26.8178 37.4375 26.9263 37.5384C27.0349 37.6393 27.1622 37.7179 27.3011 37.7696C27.44 37.8213 27.5876 37.8451 27.7357 37.8398C27.8838 37.8344 28.0294 37.7999 28.1641 37.7383C28.2989 37.6766 28.4202 37.5891 28.5211 37.4805C28.6221 37.372 28.7006 37.2447 28.7523 37.1058L29.3207 35.5883H32.8189L33.3873 37.1058C33.4678 37.3211 33.6123 37.5066 33.8013 37.6374C33.9904 37.7681 34.215 37.8378 34.4448 37.8371C34.6268 37.8376 34.8062 37.7941 34.9677 37.7101C35.1291 37.6261 35.2677 37.5043 35.3717 37.355C35.4757 37.2056 35.5419 37.0333 35.5646 36.8527C35.5874 36.6721 35.566 36.4888 35.5023 36.3183L32.1273 27.3183ZM30.1635 33.3383L31.0698 30.9183L31.9762 33.3383H30.1635Z" fill="#0066D4"/>
<path fill-rule="evenodd" clip-rule="evenodd" d="M46.3477 33.2334H47.5352C48.1047 33.2334 48.5664 32.7717 48.5664 32.2021C48.5664 31.6326 48.1047 31.1709 47.5352 31.1709H45.3477V28.1709H47.5352C48.1047 28.1709 48.5664 27.7092 48.5664 27.1396C48.5664 26.5701 48.1047 26.1084 47.5352 26.1084H45.3477V22.9834C45.3477 21.1194 43.8366 19.6084 41.9727 19.6084H38.8164V17.4209C38.8164 16.8514 38.3547 16.3896 37.7852 16.3896C37.2156 16.3896 36.7539 16.8514 36.7539 17.4209V19.6084H33.7539V17.4209C33.7539 16.8514 33.2922 16.3896 32.7227 16.3896C32.1531 16.3896 31.6914 16.8514 31.6914 17.4209V19.6084H28.6914V17.4209C28.6914 16.8514 28.2297 16.3896 27.6602 16.3896C27.0906 16.3896 26.6289 16.8514 26.6289 17.4209V19.6084H23.4727C21.6087 19.6084 20.0977 21.1194 20.0977 22.9834V26.1084H17.9102C17.3406 26.1084 16.8789 26.5701 16.8789 27.1396C16.8789 27.7092 17.3406 28.1709 17.9102 28.1709H20.0977V31.1709H17.9102C17.3406 31.1709 16.8789 31.6326 16.8789 32.2021C16.8789 32.7717 17.3406 33.2334 17.9102 33.2334H20.0977V36.2334H17.9102C17.3406 36.2334 16.8789 36.6951 16.8789 37.2646C16.8789 37.8342 17.3406 38.2959 17.9102 38.2959H20.0977V41.4834C20.0977 43.3473 21.6087 44.8584 23.4727 44.8584H26.6289V47.0459C26.6289 47.6155 27.0906 48.0771 27.6602 48.0771C28.2297 48.0771 28.6914 47.6155 28.6914 47.0459V44.8584H31.6914V47.0459C31.6914 47.6155 32.1531 48.0771 32.7227 48.0771C33.2922 48.0771 33.7539 47.6155 33.7539 47.0459V44.8584H36.7539V47.0459C36.7539 47.6155 37.2156 48.0771 37.7852 48.0771C38.3547 48.0771 38.8164 47.6155 38.8164 47.0459V44.8584H41.9727C43.8366 44.8584 45.3477 43.3473 45.3477 41.4834V38.2959H47.5352C48.1047 38.2959 48.5664 37.8342 48.5664 37.2646C48.5664 36.6951 48.1047 36.2334 47.5352 36.2334H45.3477V33.2334H46.3477ZM43.2852 41.4834C43.2852 42.2083 42.6975 42.7959 41.9727 42.7959H23.4727C22.7478 42.7959 22.1602 42.2083 22.1602 41.4834V22.9834C22.1602 22.2585 22.7478 21.6709 23.4727 21.6709H41.9727C42.6975 21.6709 43.2852 22.2585 43.2852 22.9834V41.4834Z" fill="#0066D4"/>
</g>
<defs>
<clipPath id="clip0_1626_9756">
<rect width="32" height="32" fill="white" transform="translate(16.7227 16.2334)"/>
</clipPath>
</defs>
</svg>
