<svg width="65" height="65" viewBox="0 0 65 65" fill="none" xmlns="http://www.w3.org/2000/svg">
<rect x="0.722656" y="0.233398" width="64" height="64" rx="8" fill="#F7FBFF"/>
<path fill-rule="evenodd" clip-rule="evenodd" d="M44.0558 37.9004H41.3892C40.5932 37.9004 39.8305 38.2164 39.2678 38.7791C38.7052 39.3417 38.3892 40.1044 38.3892 40.9004V43.5671C38.3892 44.3631 38.7052 45.1257 39.2678 45.6884C39.8305 46.2511 40.5932 46.5671 41.3892 46.5671H44.0558C44.8518 46.5671 45.6145 46.2511 46.1772 45.6884C46.7398 45.1257 47.0558 44.3631 47.0558 43.5671V40.9004C47.0558 40.1044 46.7398 39.3417 46.1772 38.7791C45.6145 38.2164 44.8518 37.9004 44.0558 37.9004ZM45.0558 43.5671C45.0558 43.8324 44.9505 44.0871 44.7625 44.2737C44.5758 44.4617 44.3212 44.5671 44.0558 44.5671H41.3892C41.1238 44.5671 40.8692 44.4617 40.6825 44.2737C40.4945 44.0871 40.3892 43.8324 40.3892 43.5671V40.9004C40.3892 40.6351 40.4945 40.3804 40.6825 40.1937C40.8692 40.0057 41.1238 39.9004 41.3892 39.9004H44.0558C44.3212 39.9004 44.5758 40.0057 44.7625 40.1937C44.9505 40.3804 45.0558 40.6351 45.0558 40.9004V43.5671Z" fill="#0066D4"/>
<path fill-rule="evenodd" clip-rule="evenodd" d="M45.9825 22.3071C45.2945 21.6204 44.3612 21.2338 43.3892 21.2338H27.0558V20.9004C27.0558 20.1044 26.7398 19.3417 26.1772 18.7791C25.6145 18.2164 24.8518 17.9004 24.0558 17.9004H21.3892C20.5932 17.9004 19.8305 18.2164 19.2678 18.7791C18.7052 19.3417 18.3892 20.1044 18.3892 20.9004V23.5671C18.3892 24.3631 18.7052 25.1257 19.2678 25.6884C19.8305 26.2511 20.5932 26.5671 21.3892 26.5671H24.0558C24.8518 26.5671 25.6145 26.2511 26.1772 25.6884C26.7398 25.1257 27.0558 24.3631 27.0558 23.5671V23.2338H43.3892C43.8318 23.2338 44.2545 23.4098 44.5678 23.7218C44.8798 24.0351 45.0558 24.4578 45.0558 24.9005V29.5671C45.0558 30.0098 44.8798 30.4325 44.5678 30.7458C44.2545 31.0578 43.8318 31.2338 43.3892 31.2338H41.8031L42.7625 30.2737C43.1532 29.8844 43.1532 29.2497 42.7625 28.8604C42.3732 28.4697 41.7385 28.4697 41.3492 28.8604L38.689 31.5205C38.639 31.5696 38.5942 31.6239 38.5553 31.6825C38.5526 31.6866 38.5504 31.6909 38.5478 31.695C38.5328 31.7182 38.5185 31.7419 38.5055 31.7665C38.5021 31.7727 38.4995 31.7792 38.4963 31.7855C38.4848 31.8083 38.4737 31.8313 38.464 31.855C38.4613 31.8614 38.4593 31.868 38.4569 31.8745C38.4476 31.8984 38.4388 31.9225 38.4314 31.9472C38.4297 31.9528 38.4286 31.9586 38.427 31.9643C38.4198 31.9898 38.4132 32.0155 38.408 32.0418C38.4072 32.0461 38.4068 32.0505 38.4061 32.0548C38.3955 32.1129 38.3892 32.1726 38.3892 32.2338C38.3892 32.2956 38.3956 32.3558 38.4063 32.4146C38.407 32.4182 38.4073 32.4218 38.408 32.4254C38.4133 32.4525 38.4201 32.479 38.4275 32.5052C38.4289 32.5101 38.4298 32.5151 38.4313 32.5199C38.4389 32.5456 38.448 32.5705 38.4577 32.5952C38.4598 32.6008 38.4615 32.6065 38.4638 32.612C38.474 32.6368 38.4855 32.6608 38.4975 32.6846C38.5002 32.6899 38.5024 32.6953 38.5052 32.7005C38.5189 32.7263 38.5338 32.7513 38.5496 32.7757C38.5515 32.7786 38.5531 32.7816 38.555 32.7845C38.5941 32.8436 38.6393 32.8982 38.6897 32.9476L41.3492 35.6071C41.7385 35.9977 42.3732 35.9977 42.7625 35.6071C43.1532 35.2177 43.1532 34.5831 42.7625 34.1937L41.8032 33.2338H43.3892C44.3612 33.2338 45.2945 32.8471 45.9825 32.1605C46.6692 31.4725 47.0558 30.5391 47.0558 29.5671V24.9005C47.0558 23.9285 46.6692 22.9951 45.9825 22.3071ZM25.0558 23.5671C25.0558 23.8324 24.9505 24.0871 24.7625 24.2737C24.5758 24.4617 24.3212 24.5671 24.0558 24.5671H21.3892C21.1238 24.5671 20.8692 24.4617 20.6825 24.2737C20.4945 24.0871 20.3892 23.8324 20.3892 23.5671V20.9004C20.3892 20.6351 20.4945 20.3804 20.6825 20.1937C20.8692 20.0057 21.1238 19.9004 21.3892 19.9004H24.0558C24.3212 19.9004 24.5758 20.0057 24.7625 20.1937C24.9505 20.3804 25.0558 20.6351 25.0558 20.9004V23.5671Z" fill="#0066D4"/>
<path fill-rule="evenodd" clip-rule="evenodd" d="M34.0558 27.9004H31.3892C30.5932 27.9004 29.8305 28.2164 29.2678 28.7791C28.7052 29.3417 28.3892 30.1044 28.3892 30.9004V31.2338H22.0558C21.0838 31.2338 20.1505 31.6205 19.4625 32.3071C18.7758 32.9951 18.3892 33.9285 18.3892 34.9005V39.5671C18.3892 40.5391 18.7758 41.4725 19.4625 42.1605C20.1505 42.8471 21.0838 43.2338 22.0558 43.2338H32.9751L32.0158 44.1937C31.6252 44.5831 31.6252 45.2177 32.0158 45.6071C32.4052 45.9977 33.0399 45.9977 33.4292 45.6071L36.0958 42.9404C36.4865 42.5497 36.4865 41.9177 36.0958 41.5271L33.4292 38.8604C33.0399 38.4697 32.4052 38.4697 32.0158 38.8604C31.6252 39.2497 31.6252 39.8844 32.0158 40.2737L32.9753 41.2338H22.0558C21.6132 41.2338 21.1905 41.0578 20.8772 40.7458C20.5652 40.4325 20.3892 40.0098 20.3892 39.5671V34.9005C20.3892 34.4578 20.5652 34.0351 20.8772 33.7218C21.1905 33.4098 21.6132 33.2338 22.0558 33.2338H28.3892V33.5671C28.3892 34.3631 28.7052 35.1257 29.2678 35.6884C29.8305 36.2511 30.5932 36.5671 31.3892 36.5671H34.0558C34.8518 36.5671 35.6145 36.2511 36.1772 35.6884C36.7398 35.1257 37.0558 34.3631 37.0558 33.5671V30.9004C37.0558 30.1044 36.7398 29.3417 36.1772 28.7791C35.6145 28.2164 34.8518 27.9004 34.0558 27.9004ZM35.0558 33.5671C35.0558 33.8324 34.9505 34.0871 34.7625 34.2737C34.5758 34.4617 34.3212 34.5671 34.0558 34.5671H31.3892C31.1238 34.5671 30.8692 34.4617 30.6825 34.2737C30.4945 34.0871 30.3892 33.8324 30.3892 33.5671V30.9004C30.3892 30.6351 30.4945 30.3804 30.6825 30.1937C30.8692 30.0057 31.1238 29.9004 31.3892 29.9004H34.0558C34.3212 29.9004 34.5758 30.0057 34.7625 30.1937C34.9505 30.3804 35.0558 30.6351 35.0558 30.9004V33.5671Z" fill="#0066D4"/>
</svg>
