<svg width="65" height="65" viewBox="0 0 65 65" fill="none" xmlns="http://www.w3.org/2000/svg">
<rect x="0.722656" y="0.233398" width="64" height="64" rx="8" fill="#F7FBFF"/>
<path d="M42.2852 30.5938H41.375C40.8744 30.5938 40.4648 31.0033 40.4648 31.5039C40.4648 32.0045 40.8744 32.4141 41.375 32.4141H42.2852C42.7858 32.4141 43.1953 32.0045 43.1953 31.5039C43.1953 31.0033 42.7858 30.5938 42.2852 30.5938Z" fill="#0066D4"/>
<path d="M38.6445 30.5938H37.7344C37.2338 30.5938 36.8242 31.0033 36.8242 31.5039C36.8242 32.0045 37.2338 32.4141 37.7344 32.4141H38.6445C39.1452 32.4141 39.5547 32.0045 39.5547 31.5039C39.5547 31.0033 39.1452 30.5938 38.6445 30.5938Z" fill="#0066D4"/>
<path d="M45.8442 28.6003C45.4255 28.127 44.8248 27.8631 44.1786 27.8631H43.8328V25.1144C43.8328 23.9403 42.8589 22.9846 41.6575 22.9846H33.2476L30.7447 20.0539C30.5718 19.8537 30.3169 19.7354 30.053 19.7354H25.6023C24.4009 19.7354 23.427 20.691 23.427 21.8651V27.8631H23.0812C22.4441 27.8631 21.8343 28.127 21.4156 28.6003C21.0151 29.0463 20.824 29.6469 20.8968 30.2294L21.3155 33.7882C20.915 33.8246 20.469 33.8428 19.9775 33.8428C19.486 33.8428 19.0674 34.2523 19.0674 34.7529V39.4493C19.0674 42.2344 20.7057 44.7828 23.3542 46.1026L25.0289 46.9399C25.1563 47.0036 25.2928 47.0401 25.4385 47.0401C25.5841 47.0401 25.7206 47.0036 25.8481 46.9399L27.5228 46.1026C28.442 45.6384 29.2338 45.0286 29.8891 44.3096H42.7496C43.8691 44.3096 44.8066 43.4995 44.934 42.4164L46.363 30.2294C46.4358 29.6378 46.2446 29.0463 45.8442 28.6003ZM25.2565 21.8651C25.2565 21.6922 25.4203 21.5557 25.6114 21.5557H29.6434L30.863 22.9846H28.3783C27.8777 22.9846 27.4681 23.3942 27.4681 23.8948C27.4681 24.3953 27.8777 24.8049 28.3783 24.8049H41.6575C41.8577 24.8049 42.0125 24.9414 42.0125 25.1144V27.8631H25.2565V21.8651ZM29.9984 39.4493C29.9984 41.5427 28.7423 43.4631 26.7218 44.4734L25.4476 45.1105L24.1734 44.4734C22.1528 43.4631 20.8968 41.5336 20.8968 39.4493V35.6449C23.3178 35.5266 24.7103 34.9714 25.4476 34.5254C26.1848 34.9714 27.5773 35.5266 29.9984 35.6449V39.4493ZM43.1501 42.2162C43.1319 42.3709 42.9681 42.4984 42.777 42.4984L42.7678 42.4893H31.1361C31.4728 41.7884 31.6821 41.033 31.7731 40.2503H43.3776L43.1501 42.2162ZM44.57 30.0201L43.587 38.4299H31.8278V34.7529C31.8278 34.2523 31.4182 33.8428 30.9176 33.8428C27.2952 33.8428 26.1757 32.8234 26.1302 32.7779C25.9664 32.5959 25.7206 32.5048 25.4749 32.4958C25.2383 32.4958 24.9561 32.5959 24.7831 32.7779C24.7831 32.7779 24.3463 33.1966 23.1358 33.506L22.7262 30.0201C22.7171 29.9291 22.7626 29.8563 22.799 29.8108C22.8718 29.7289 22.9811 29.6834 23.0994 29.6834H44.1968C44.3151 29.6834 44.4243 29.7289 44.4971 29.8108C44.5336 29.8563 44.5791 29.9291 44.57 30.0201Z" fill="#0066D4"/>
<path d="M23.864 38.8129C23.509 38.4579 22.9356 38.4579 22.5807 38.8129C22.2257 39.1678 22.2257 39.7412 22.5807 40.0962L24.2736 41.7891C24.4556 41.9711 24.6831 42.053 24.9198 42.053C25.1564 42.053 25.3839 41.962 25.566 41.7891L28.3329 39.0222C28.6878 38.6673 28.6878 38.0938 28.3329 37.7389C27.9779 37.3839 27.4045 37.3839 27.0496 37.7389H27.0313L24.9107 39.8595L23.864 38.8129Z" fill="#0066D4"/>
</svg>
