<svg width="89" height="89" viewBox="0 0 89 89" fill="none" xmlns="http://www.w3.org/2000/svg">
<rect x="0.222656" y="0.233398" width="88" height="88" rx="16" fill="white"/>
<path d="M54.7047 59.4175C52.992 59.6477 50.7342 59.6504 47.5562 59.6504C46.8658 59.6504 46.3062 60.21 46.3062 60.9004C46.3062 61.5907 46.8658 62.1504 47.5562 62.1504H47.6502C50.7131 62.1504 53.1392 62.1504 55.0379 61.8952C56.9919 61.6325 58.5735 61.0789 59.8208 59.8317C60.9615 58.6909 61.5844 57.606 61.8768 55.9304C62.1396 54.4242 62.1396 52.3929 62.1395 49.3942L62.1395 49.2337C62.1395 48.5434 61.5799 47.9837 60.8895 47.9837C60.1991 47.9837 59.6395 48.5434 59.6395 49.2337C59.6395 52.4322 59.6347 54.2361 59.414 55.5007C59.2182 56.6226 58.8649 57.252 58.053 58.0639C57.3476 58.7692 56.3816 59.192 54.7047 59.4175Z" fill="#1C274C"/>
<path d="M28.8062 39.2337C28.8062 39.9241 28.2465 40.4837 27.5562 40.4837C26.8658 40.4837 26.3062 39.9241 26.3062 39.2337L26.3062 39.0732C26.3061 36.0746 26.306 34.0432 26.5688 32.537C26.8612 30.8615 27.4842 29.7765 28.6249 28.6358C29.8722 27.3885 31.4538 26.835 33.4078 26.5723C35.3065 26.317 37.7325 26.317 40.7955 26.3171H40.8895C41.5799 26.3171 42.1395 26.8767 42.1395 27.5671C42.1395 28.2574 41.5799 28.8171 40.8895 28.8171C37.7115 28.8171 35.4537 28.8197 33.7409 29.05C32.0641 29.2754 31.098 29.6982 30.3927 30.4036C29.5808 31.2155 29.2274 31.8448 29.0316 32.9668C28.811 34.2314 28.8062 36.0352 28.8062 39.2337Z" fill="#1C274C"/>
<path d="M62.1395 39.2337C62.1395 39.9241 61.5799 40.4837 60.8895 40.4837C60.1991 40.4837 59.6395 39.9241 59.6395 39.2337C59.6395 36.0352 59.6347 34.2314 59.414 32.9668C59.2182 31.8448 58.8649 31.2155 58.053 30.4036C57.3476 29.6982 56.3816 29.2754 54.7047 29.05C52.992 28.8197 50.7342 28.8171 47.5562 28.8171C46.8658 28.8171 46.3062 28.2574 46.3062 27.5671C46.3062 26.8767 46.8658 26.3171 47.5562 26.3171H47.6502C50.7131 26.317 53.1392 26.317 55.0379 26.5723C56.9919 26.835 58.5735 27.3885 59.8208 28.6358C60.9615 29.7765 61.5844 30.8615 61.8768 32.537C62.1396 34.0432 62.1396 36.0746 62.1395 39.0732L62.1395 39.2337Z" fill="#1C274C"/>
<path d="M40.8895 62.1504H40.7955C37.7325 62.1504 35.3065 62.1504 33.4078 61.8952C31.4538 61.6325 29.8722 61.0789 28.6249 59.8317C27.4842 58.6909 26.8612 57.606 26.5688 55.9304C26.306 54.4242 26.3061 52.3929 26.3062 49.3943L26.3062 49.2337C26.3062 48.5434 26.8658 47.9837 27.5562 47.9837C28.2465 47.9837 28.8062 48.5434 28.8062 49.2337C28.8062 52.4322 28.811 54.2361 29.0316 55.5007C29.2274 56.6226 29.5808 57.252 30.3927 58.0639C31.098 58.7692 32.0641 59.192 33.7409 59.4175C35.4537 59.6477 37.7115 59.6504 40.8895 59.6504C41.5799 59.6504 42.1395 60.21 42.1395 60.9004C42.1395 61.5907 41.5799 62.1504 40.8895 62.1504Z" fill="#1C274C"/>
<path fill-rule="evenodd" clip-rule="evenodd" d="M44.2228 48.8171C41.6915 48.8171 39.6395 46.765 39.6395 44.2337C39.6395 41.7024 41.6915 39.6504 44.2228 39.6504C46.7541 39.6504 48.8062 41.7024 48.8062 44.2337C48.8062 46.765 46.7541 48.8171 44.2228 48.8171ZM42.1395 44.2337C42.1395 45.3843 43.0722 46.3171 44.2228 46.3171C45.3734 46.3171 46.3062 45.3843 46.3062 44.2337C46.3062 43.0831 45.3734 42.1504 44.2228 42.1504C43.0722 42.1504 42.1395 43.0831 42.1395 44.2337Z" fill="#1C274C"/>
<path fill-rule="evenodd" clip-rule="evenodd" d="M33.0968 48.4829C35.2134 50.9381 38.8501 53.8171 44.2228 53.8171C49.5956 53.8171 53.2323 50.9381 55.3489 48.4829L55.4027 48.4205C55.8544 47.897 56.3188 47.3587 56.638 46.7136C56.9949 45.9923 57.1395 45.2181 57.1395 44.2337C57.1395 43.2494 56.9949 42.4751 56.638 41.7538C56.3188 41.1087 55.8544 40.5704 55.4027 40.0469L55.3489 39.9845C53.2323 37.5294 49.5956 34.6504 44.2228 34.6504C38.8501 34.6504 35.2134 37.5294 33.0968 39.9845L33.043 40.0469C32.5913 40.5704 32.1268 41.1087 31.8076 41.7538C31.4508 42.4751 31.3062 43.2494 31.3062 44.2337C31.3062 45.2181 31.4508 45.9923 31.8076 46.7136C32.1268 47.3587 32.5913 47.897 33.043 48.4205L33.0968 48.4829ZM44.2228 51.3171C39.8378 51.3171 36.8335 48.9886 34.9903 46.8505C34.467 46.2436 34.2123 45.9362 34.0484 45.6049C33.9095 45.3242 33.8062 44.957 33.8062 44.2337C33.8062 43.5104 33.9095 43.1432 34.0484 42.8625C34.2123 42.5312 34.467 42.2239 34.9903 41.6169C36.8335 39.4788 39.8378 37.1504 44.2228 37.1504C48.6078 37.1504 51.6121 39.4788 53.4554 41.6169C53.9786 42.2239 54.2334 42.5312 54.3973 42.8625C54.5362 43.1432 54.6395 43.5104 54.6395 44.2337C54.6395 44.957 54.5362 45.3242 54.3973 45.6049C54.2334 45.9362 53.9786 46.2436 53.4554 46.8505C51.6121 48.9886 48.6078 51.3171 44.2228 51.3171Z" fill="#1C274C"/>
</svg>
