<svg width="65" height="65" viewBox="0 0 65 65" fill="none" xmlns="http://www.w3.org/2000/svg">
<rect x="0.722656" y="0.233398" width="64" height="64" rx="8" fill="#F7FBFF"/>
<g clip-path="url(#clip0_1614_8345)">
<path d="M33.8494 26.0812L32.1148 27.8159L31.5955 27.2967C31.2295 26.9305 30.6358 26.9305 30.2697 27.2967C29.9036 27.6628 29.9036 28.2564 30.2697 28.6225L31.4518 29.8046C31.8178 30.1705 32.4115 30.1707 32.7776 29.8046L35.1752 27.407C35.5413 27.0409 35.5413 26.4474 35.1752 26.0812C34.8091 25.7151 34.2155 25.7151 33.8494 26.0812Z" fill="#0066D4"/>
<path d="M46.7789 27.2642V18.6279C46.7789 18.1102 46.3592 17.6904 45.8414 17.6904H19.5914C19.0737 17.6904 18.6539 18.1102 18.6539 18.6279V36.5522H17.6602C17.1424 36.5522 16.7227 36.972 16.7227 37.4897V41.1772C16.7227 42.7281 17.9843 43.9897 19.5352 43.9897H35.5977V44.9388C35.5977 46.4896 36.8593 47.7513 38.4102 47.7513H45.9102C47.461 47.7513 48.7227 46.4896 48.7227 44.9388V29.9388C48.7227 28.6911 47.9057 27.6312 46.7789 27.2642ZM35.5977 42.1147H19.5352C19.0182 42.1147 18.5977 41.6942 18.5977 41.1772V38.4272H27.968L27.9695 39.3154C27.9704 39.8325 28.3899 40.2513 28.907 40.2513H35.5977V42.1147ZM35.5977 29.9388V31.6413C34.7784 32.2779 33.7655 32.6262 32.7227 32.6262C30.138 32.6262 28.0352 30.5234 28.0352 27.9387C28.0352 25.3541 30.138 23.2512 32.7227 23.2512C35.0818 23.2512 37.0658 25.0371 37.3691 27.3268C36.3323 27.7416 35.5977 28.7557 35.5977 29.9388ZM32.7227 21.3763C29.1041 21.3763 26.1602 24.3202 26.1602 27.9388C26.1602 31.5574 29.1041 34.5013 32.7227 34.5013C33.7257 34.5013 34.7083 34.2698 35.5977 33.8366V38.3763H29.8429L29.8414 37.4882C29.8405 36.9711 29.421 36.5522 28.9039 36.5522H20.5289V19.5654H44.9039V27.1263H39.2352C38.8384 23.901 36.0902 21.3763 32.7227 21.3763ZM46.8477 44.9388C46.8477 45.4557 46.4271 45.8763 45.9102 45.8763H38.4102C37.8932 45.8763 37.4727 45.4557 37.4727 44.9388V44.0013H46.8477V44.9388ZM46.8477 42.1263H37.4727V32.7513H46.8477V42.1263ZM46.8477 30.8763H37.4727V29.9388C37.4727 29.4219 37.8932 29.0013 38.4102 29.0013H45.9102C46.4271 29.0013 46.8477 29.4219 46.8477 29.9388V30.8763Z" fill="#0066D4"/>
<path d="M40.8893 39.3162C41.2555 39.6823 41.849 39.6823 42.2151 39.3162L44.6126 36.9187C44.9788 36.5527 44.9788 35.959 44.6127 35.5929C44.2466 35.2268 43.653 35.2268 43.2869 35.5929L41.5523 37.3275L41.033 36.8083C40.667 36.4422 40.0733 36.4422 39.7072 36.8083C39.3411 37.1743 39.3411 37.768 39.7072 38.1341L40.8893 39.3162Z" fill="#0066D4"/>
</g>
<defs>
<clipPath id="clip0_1614_8345">
<rect width="32" height="32" fill="white" transform="translate(16.7227 16.2334)"/>
</clipPath>
</defs>
</svg>
