<svg width="65" height="65" viewBox="0 0 65 65" fill="none" xmlns="http://www.w3.org/2000/svg">
<rect x="0.722656" y="0.233398" width="64" height="64" rx="8" fill="#F7FBFF"/>
<g clip-path="url(#clip0_1626_9770)">
<path fill-rule="evenodd" clip-rule="evenodd" d="M47.7852 28.7285H45.6925C45.3883 27.6003 44.9408 26.5312 44.3712 25.5417L45.8518 24.061C46.2179 23.6948 46.2179 23.1013 45.8518 22.7352L42.2209 19.1042C42.0451 18.9284 41.8066 18.8296 41.558 18.8296C41.3093 18.8297 41.0708 18.9284 40.895 19.1042L39.4144 20.5849C38.425 20.0153 37.3558 19.5678 36.2277 19.2636V17.1709C36.2277 16.6531 35.8079 16.2334 35.2902 16.2334H30.1552C29.6374 16.2334 29.2177 16.6531 29.2177 17.1709V19.2636C28.0895 19.5678 27.0203 20.0153 26.0309 20.5849L24.5503 19.1042C24.3745 18.9284 24.136 18.8297 23.8873 18.8296C23.6387 18.8296 23.4002 18.9284 23.2244 19.1042L19.5935 22.7352C19.2274 23.1013 19.2274 23.6948 19.5935 24.061L21.0741 25.5417C20.5045 26.5312 20.057 27.6003 19.7528 28.7285H17.6602C17.1424 28.7285 16.7227 29.1482 16.7227 29.666V34.8009C16.7227 35.3187 17.1424 35.7384 17.6602 35.7384H19.7528C20.057 36.8666 20.5045 37.9357 21.0741 38.9252L19.5935 40.4058C19.2274 40.772 19.2274 41.3656 19.5935 41.7317L23.2244 45.3627C23.4002 45.5385 23.6387 45.6372 23.8873 45.6372C24.136 45.6372 24.3745 45.5384 24.5503 45.3626L26.0309 43.8819C27.0203 44.4515 28.0895 44.899 29.2177 45.2033V47.2959C29.2177 47.8137 29.6374 48.2334 30.1552 48.2334H35.2902C35.8079 48.2334 36.2277 47.8137 36.2277 47.2959V45.2033C37.3558 44.899 38.425 44.4515 39.4144 43.8819L40.895 45.3626C41.0708 45.5384 41.3093 45.6372 41.558 45.6372C41.8066 45.6372 42.0451 45.5385 42.2209 45.3627L45.8518 41.7317C46.2179 41.3656 46.2179 40.772 45.8518 40.4058L44.3712 38.9252C44.9408 37.9357 45.3883 36.8666 45.6925 35.7384H47.7852C48.3029 35.7384 48.7227 35.3187 48.7227 34.8009V29.666C48.7227 29.1482 48.3029 28.7285 47.7852 28.7285ZM46.8477 33.8634H44.9531C44.5092 33.8634 44.1262 34.1747 44.0354 34.6092C43.737 36.0377 43.1745 37.3694 42.4008 38.5518C42.1578 38.9233 42.2086 39.4142 42.5224 39.728L43.8631 41.0688L41.558 43.3739L40.2173 42.0332C39.9035 41.7193 39.4125 41.6686 39.0411 41.9116C37.8587 42.6853 36.527 43.2478 35.0985 43.5462C34.664 43.637 34.3527 44.02 34.3527 44.4639V46.3584H31.0927V44.4639C31.0927 44.02 30.7813 43.637 30.3468 43.5462C28.9183 43.2478 27.5867 42.6853 26.4042 41.9116C26.0328 41.6686 25.5418 41.7193 25.228 42.0332L23.8873 43.3739L21.5822 41.0688L22.9229 39.728C23.2367 39.4142 23.2875 38.9233 23.0445 38.5518C22.2708 37.3694 21.7083 36.0377 21.4099 34.6092C21.3192 34.1747 20.9361 33.8634 20.4922 33.8634H18.5977V30.6035H20.4922C20.9361 30.6035 21.3192 30.2922 21.4099 29.8577C21.7083 28.4292 22.2708 27.0975 23.0445 25.915C23.2875 25.5436 23.2367 25.0527 22.9229 24.7388L21.5822 23.3981L23.8873 21.093L25.228 22.4337C25.5418 22.7475 26.0328 22.7983 26.4042 22.5553C27.5867 21.7816 28.9183 21.2191 30.3468 20.9207C30.7813 20.8299 31.0927 20.4468 31.0927 20.003V18.1084H34.3527V20.003C34.3527 20.4468 34.664 20.8299 35.0985 20.9207C36.527 21.2191 37.8587 21.7816 39.0411 22.5553C39.4125 22.7983 39.9035 22.7475 40.2173 22.4337L41.558 21.093L43.8631 23.3981L42.5224 24.7388C42.2086 25.0527 42.1578 25.5436 42.4008 25.915C43.1745 27.0975 43.737 28.4292 44.0354 29.8577C44.1262 30.2922 44.5092 30.6035 44.9531 30.6035H46.8477V33.8634Z" fill="#0066D4"/>
<path fill-rule="evenodd" clip-rule="evenodd" d="M32.7227 23.1084C27.6831 23.1084 23.5977 27.1938 23.5977 32.2334C23.5977 37.273 27.6831 41.3584 32.7227 41.3584C37.7622 41.3584 41.8477 37.273 41.8477 32.2334C41.8477 27.1938 37.7622 23.1084 32.7227 23.1084ZM32.7227 39.4834C28.7186 39.4834 25.4727 36.2375 25.4727 32.2334C25.4727 28.2293 28.7186 24.9834 32.7227 24.9834C36.7267 24.9834 39.9727 28.2293 39.9727 32.2334C39.9727 36.2375 36.7267 39.4834 32.7227 39.4834Z" fill="#0066D4"/>
<path fill-rule="evenodd" clip-rule="evenodd" d="M35.4742 27.1503C35.1263 26.7669 34.5334 26.7381 34.15 27.086C33.7665 27.4339 33.7377 28.0268 34.0856 28.4102L34.3717 28.7256H28.957C28.4393 28.7256 28.0195 29.1454 28.0195 29.6631C28.0195 30.1809 28.4393 30.6006 28.957 30.6006H34.3717L34.0856 30.9159C33.7377 31.2994 33.7665 31.8923 34.15 32.2402C34.5334 32.5881 35.1263 32.5593 35.4742 32.1759L37.1825 30.2931C37.5068 29.9357 37.5068 29.3906 37.1825 29.0331L35.4742 27.1503Z" fill="#0066D4"/>
<path fill-rule="evenodd" clip-rule="evenodd" d="M36.4882 33.866H31.0737L31.3597 33.5509C31.7076 33.1674 31.6788 32.5746 31.2953 32.2266C30.9118 31.8787 30.319 31.9075 29.971 32.2909L28.2627 34.1737C27.9385 34.5312 27.9385 35.0763 28.2627 35.4337L29.971 37.3165C30.319 37.6999 30.9118 37.7287 31.2953 37.3809C31.6788 37.0329 31.7076 36.4401 31.3597 36.0566L31.0733 35.741H36.4882C37.006 35.741 37.4257 35.3212 37.4257 34.8035C37.4257 34.2857 37.006 33.866 36.4882 33.866Z" fill="#0066D4"/>
</g>
<defs>
<clipPath id="clip0_1626_9770">
<rect width="32" height="32" fill="white" transform="translate(16.7227 16.2334)"/>
</clipPath>
</defs>
</svg>
