<svg width="48" height="47" viewBox="0 0 48 47" fill="none" xmlns="http://www.w3.org/2000/svg">
<g id="Frame">
<g id="Layer 2">
<path id="Vector" d="M39.9519 22.1602H31.185V7.54874C31.185 6.38617 30.7231 5.27122 29.9011 4.44917C29.079 3.62711 27.9641 3.16528 26.8015 3.16528H7.80655C6.64399 3.16528 5.52904 3.62711 4.70698 4.44917C3.88492 5.27122 3.4231 6.38617 3.4231 7.54874V33.8495C3.4231 36.5621 4.50069 39.1637 6.41882 41.0818C8.33696 42.9999 10.9385 44.0775 13.6512 44.0775H34.1073C36.8199 44.0775 39.4215 42.9999 41.3396 41.0818C43.2577 39.1637 44.3353 36.5621 44.3353 33.8495V26.5437C44.3353 25.3811 43.8735 24.2662 43.0514 23.4441C42.2294 22.6221 41.1144 22.1602 39.9519 22.1602ZM6.3454 33.8495V7.54874C6.3454 7.16122 6.49934 6.78957 6.77336 6.51555C7.04738 6.24153 7.41903 6.08759 7.80655 6.08759H26.8015C27.189 6.08759 27.5607 6.24153 27.8347 6.51555C28.1087 6.78957 28.2627 7.16122 28.2627 7.54874V41.1552H13.6512C11.7135 41.1552 9.8553 40.3855 8.4852 39.0154C7.11511 37.6453 6.3454 35.7871 6.3454 33.8495ZM41.413 33.8495C41.413 35.7871 40.6433 37.6453 39.2732 39.0154C37.9031 40.3855 36.0449 41.1552 34.1073 41.1552H31.185V25.0826H39.9519C40.3394 25.0826 40.711 25.2365 40.9851 25.5105C41.2591 25.7845 41.413 26.1562 41.413 26.5437V33.8495ZM23.8792 10.471H10.7289C10.3413 10.471 9.96968 10.625 9.69566 10.899C9.42164 11.173 9.2677 11.5447 9.2677 11.9322V20.6991C9.2677 21.0866 9.42164 21.4583 9.69566 21.7323C9.96968 22.0063 10.3413 22.1602 10.7289 22.1602H23.8792C24.2667 22.1602 24.6384 22.0063 24.9124 21.7323C25.1864 21.4583 25.3404 21.0866 25.3404 20.6991V11.9322C25.3404 11.5447 25.1864 11.173 24.9124 10.899C24.6384 10.625 24.2667 10.471 23.8792 10.471ZM22.4181 19.2379H12.19V13.3933H22.4181V19.2379ZM25.3404 26.5437C25.3404 26.9312 25.1864 27.3029 24.9124 27.5769C24.6384 27.8509 24.2667 28.0049 23.8792 28.0049H10.7289C10.3413 28.0049 9.96968 27.8509 9.69566 27.5769C9.42164 27.3029 9.2677 26.9312 9.2677 26.5437C9.2677 26.1562 9.42164 25.7845 9.69566 25.5105C9.96968 25.2365 10.3413 25.0826 10.7289 25.0826H23.8792C24.2667 25.0826 24.6384 25.2365 24.9124 25.5105C25.1864 25.7845 25.3404 26.1562 25.3404 26.5437ZM19.4958 32.3883C19.4958 32.7758 19.3418 33.1475 19.0678 33.4215C18.7938 33.6955 18.4221 33.8495 18.0346 33.8495H10.7289C10.3413 33.8495 9.96968 33.6955 9.69566 33.4215C9.42164 33.1475 9.2677 32.7758 9.2677 32.3883C9.2677 32.0008 9.42164 31.6291 9.69566 31.3551C9.96968 31.0811 10.3413 30.9272 10.7289 30.9272H18.0346C18.4221 30.9272 18.7938 31.0811 19.0678 31.3551C19.3418 31.6291 19.4958 32.0008 19.4958 32.3883Z" fill="black"/>
</g>
</g>
</svg>
