<svg width="48" height="48" viewBox="0 0 48 48" fill="none" xmlns="http://www.w3.org/2000/svg">
<g id="Layer_1">
<path id="Vector" d="M4.91623 23.4076L22.1714 33.5162C22.1996 33.5329 22.2286 33.5485 22.2576 33.5634C22.873 33.8707 23.5615 34.0334 24.2493 34.0334C24.9372 34.0334 25.6257 33.8707 26.2411 33.5634C26.2701 33.5485 26.2991 33.5329 26.3273 33.5162L43.5825 23.4076C45.0494 22.6523 45.9721 21.1647 45.9953 19.5118C46.0185 17.8571 45.1357 16.3427 43.6883 15.5472L26.4288 4.92536C26.4042 4.90977 26.3781 4.89492 26.352 4.88078C25.0633 4.19078 23.4354 4.19078 22.1467 4.88078C22.1206 4.89492 22.0945 4.90977 22.0699 4.92536L4.81041 15.5472C3.363 16.3427 2.4802 17.8571 2.50339 19.5118C2.52659 21.1647 3.44925 22.6523 4.91623 23.4076ZM6.25492 18.1409C6.28101 18.1267 6.30711 18.1119 6.33175 18.0963L23.5811 7.48098C23.9942 7.27296 24.5045 7.27296 24.9176 7.48098L42.1669 18.0963C42.1916 18.1119 42.2177 18.1267 42.2438 18.1409C42.7424 18.4076 43.0352 18.9048 43.0273 19.4701C43.0193 20.0355 42.7127 20.524 42.2068 20.7766C42.1778 20.7914 42.1488 20.807 42.1206 20.8237L24.877 30.9255C24.4856 31.1074 24.0131 31.1074 23.6217 30.9255L6.37813 20.8237C6.34987 20.807 6.32088 20.7914 6.29188 20.7766C5.78598 20.524 5.47939 20.0355 5.47142 19.4701C5.46345 18.9048 5.75626 18.4076 6.25492 18.1409ZM45.9953 29.9024C45.9721 31.5553 45.0494 33.043 43.5825 33.7982L26.3273 43.9069C26.2991 43.9235 26.2701 43.9391 26.2411 43.954C25.6178 44.2656 24.9335 44.4215 24.2493 44.4215C23.5651 44.4215 22.8809 44.2656 22.2576 43.954C22.2286 43.9391 22.1996 43.9235 22.1714 43.9069L4.91623 33.7982C3.44925 33.043 2.52659 31.5553 2.50339 29.9024C2.47948 28.2314 3.38039 26.7036 4.85317 25.9143C5.57651 25.5276 6.47598 25.7997 6.8623 26.522C7.24934 27.2446 6.97754 28.1441 6.25492 28.5315C5.75626 28.7982 5.46345 29.2954 5.47142 29.8608C5.47939 30.4261 5.78598 30.9146 6.29188 31.1672C6.32088 31.1821 6.34987 31.1976 6.37813 31.2143L23.6217 41.3161C24.0174 41.5002 24.4813 41.5002 24.877 41.3161L42.1206 31.2143C42.1488 31.1976 42.1778 31.1821 42.2068 31.1672C42.7127 30.9146 43.0193 30.4261 43.0273 29.8608C43.0352 29.2954 42.7424 28.7982 42.2438 28.5315C41.5211 28.1441 41.2494 27.2446 41.6364 26.522C42.0227 25.7997 42.9222 25.5276 43.6455 25.9143C45.1183 26.7036 46.0192 28.2314 45.9953 29.9024Z" fill="black"/>
</g>
</svg>
