<svg width="47" height="47" viewBox="0 0 47 47" fill="none" xmlns="http://www.w3.org/2000/svg">
<g id="OBJECT">
<path id="Vector" d="M44.0938 36.5713V16.2275C44.0938 13.8299 42.132 11.8682 39.7344 11.8682H36.4939C35.1716 6.05566 29.9694 1.69629 23.75 1.69629C17.5306 1.69629 12.3284 6.05566 11.0061 11.8682H7.76562C5.36797 11.8682 3.40625 13.8299 3.40625 16.2275V36.5713C2.60703 36.5713 1.95312 37.2252 1.95312 38.0244V40.9307C1.95312 43.3283 3.91484 45.29 6.3125 45.29H41.1875C43.5852 45.29 45.5469 43.3283 45.5469 40.9307V38.0244C45.5469 37.2252 44.893 36.5713 44.0938 36.5713ZM23.75 4.60254C29.3591 4.60254 33.9219 9.16535 33.9219 14.7744C33.9219 20.3835 29.3591 24.9463 23.75 24.9463C18.1409 24.9463 13.5781 20.3835 13.5781 14.7744C13.5781 9.16535 18.1409 4.60254 23.75 4.60254ZM6.3125 16.2275C6.3125 15.4283 6.96641 14.7744 7.76562 14.7744H10.6719C10.6719 21.9819 16.5425 27.8525 23.75 27.8525C30.9575 27.8525 36.8281 21.9819 36.8281 14.7744H39.7344C40.5336 14.7744 41.1875 15.4283 41.1875 16.2275V36.5713H6.3125V16.2275ZM42.6406 40.9307C42.6406 41.7299 41.9867 42.3838 41.1875 42.3838H6.3125C5.51328 42.3838 4.85938 41.7299 4.85938 40.9307V39.4775H42.6406V40.9307Z" fill="black"/>
<g id="Group">
<path id="Vector_2" d="M10.4971 30.7588H9.77051C8.97129 30.7588 8.31738 31.4127 8.31738 32.2119C8.31738 33.0111 8.97129 33.665 9.77051 33.665H10.4971C11.2963 33.665 11.9502 33.0111 11.9502 32.2119C11.9502 31.4127 11.2963 30.7588 10.4971 30.7588Z" fill="black"/>
<path id="Vector_3" d="M16.3096 30.7588H15.583C14.7838 30.7588 14.1299 31.4127 14.1299 32.2119C14.1299 33.0111 14.7838 33.665 15.583 33.665H16.3096C17.1088 33.665 17.7627 33.0111 17.7627 32.2119C17.7627 31.4127 17.1088 30.7588 16.3096 30.7588Z" fill="black"/>
<path id="Vector_4" d="M31.917 30.7588H31.1904C30.3912 30.7588 29.7373 31.4127 29.7373 32.2119C29.7373 33.0111 30.3912 33.665 31.1904 33.665H31.917C32.7162 33.665 33.3701 33.0111 33.3701 32.2119C33.3701 31.4127 32.7162 30.7588 31.917 30.7588Z" fill="black"/>
<path id="Vector_5" d="M37.7292 30.7588H37.0027C36.2035 30.7588 35.5496 31.4127 35.5496 32.2119C35.5496 33.0111 36.2035 33.665 37.0027 33.665H37.7292C38.5285 33.665 39.1824 33.0111 39.1824 32.2119C39.1824 31.4127 38.5285 30.7588 37.7292 30.7588Z" fill="black"/>
</g>
<path id="Vector_6" d="M24.6365 17.7097C24.9271 18.0004 25.2904 18.1311 25.6682 18.1311C26.0461 18.1311 26.4093 17.9858 26.7 17.7097C27.2667 17.143 27.2667 16.2275 26.7 15.6608L25.2178 14.1786V8.96191C25.2178 8.1627 24.5639 7.50879 23.7646 7.50879C22.9654 7.50879 22.3115 8.1627 22.3115 8.96191V14.7744C22.3115 15.1668 22.4714 15.53 22.7329 15.8061L24.6511 17.7243L24.6365 17.7097Z" fill="black"/>
</g>
</svg>
