<svg width="48" height="48" viewBox="0 0 48 48" fill="none" xmlns="http://www.w3.org/2000/svg">
<g id="svg2574" clip-path="url(#clip0_2864_1041)">
<g id="g2580">
<g id="g2582">
<g id="Clip path group">
<mask id="mask0_2864_1041" style="mask-type:luminance" maskUnits="userSpaceOnUse" x="0" y="0" width="48" height="48">
<g id="clipPath2588">
<path id="path2586" d="M0.5 0.243046H47.5V47.243H0.5V0.243046Z" fill="white"/>
</g>
</mask>
<g mask="url(#mask0_2864_1041)">
<g id="g2584">
<g id="g2590">
<path id="path2592" d="M1.87695 7.21936V1.61975" stroke="black" stroke-width="2.75391" stroke-miterlimit="10" stroke-linecap="round" stroke-linejoin="round"/>
</g>
<g id="g2594">
<path id="path2596" d="M7.47656 1.61975H1.87695" stroke="black" stroke-width="2.75391" stroke-miterlimit="10" stroke-linecap="round" stroke-linejoin="round"/>
</g>
<g id="g2598">
<path id="path2600" d="M7.47656 45.8657H1.87695" stroke="black" stroke-width="2.75391" stroke-miterlimit="10" stroke-linecap="round" stroke-linejoin="round"/>
</g>
<g id="g2602">
<path id="path2604" d="M1.87695 40.2661V45.8657" stroke="black" stroke-width="2.75391" stroke-miterlimit="10" stroke-linecap="round" stroke-linejoin="round"/>
</g>
<g id="g2606">
<path id="path2608" d="M46.123 7.21936V1.61975" stroke="black" stroke-width="2.75391" stroke-miterlimit="10" stroke-linecap="round" stroke-linejoin="round"/>
</g>
<g id="g2610">
<path id="path2612" d="M40.5234 1.61975H46.123" stroke="black" stroke-width="2.75391" stroke-miterlimit="10" stroke-linecap="round" stroke-linejoin="round"/>
</g>
<g id="g2614">
<path id="path2616" d="M40.5234 45.8658H46.123" stroke="black" stroke-width="2.75391" stroke-miterlimit="10" stroke-linecap="round" stroke-linejoin="round"/>
</g>
<g id="g2618">
<path id="path2620" d="M46.123 40.2662V45.8658" stroke="black" stroke-width="2.75391" stroke-miterlimit="10" stroke-linecap="round" stroke-linejoin="round"/>
</g>
<g id="g2622">
<path id="path2624" d="M41.4074 11.7299V31.8672C41.4074 33.5613 40.0341 34.9346 38.3399 34.9346H29.7244L24.0009 40.6592L18.2755 34.9346H9.66001C7.9659 34.9346 6.59253 33.5613 6.59253 31.8672V11.7299C6.59253 10.0357 7.9659 8.66237 9.66001 8.66237H38.3399C40.0341 8.66237 41.4074 10.0357 41.4074 11.7299Z" stroke="black" stroke-width="2.75391" stroke-miterlimit="10" stroke-linecap="round" stroke-linejoin="round"/>
</g>
<g id="g2626">
<path id="path2628" d="M24 14.1702V29.5265" stroke="black" stroke-width="2.75391" stroke-miterlimit="10" stroke-linecap="round" stroke-linejoin="round"/>
</g>
<g id="g2630">
<path id="path2632" d="M18.4922 17.842V25.8546" stroke="black" stroke-width="2.75391" stroke-miterlimit="10" stroke-linecap="round" stroke-linejoin="round"/>
</g>
<g id="g2634">
<path id="path2636" d="M12.9844 16.0061V27.6906" stroke="black" stroke-width="2.75391" stroke-miterlimit="10" stroke-linecap="round" stroke-linejoin="round"/>
</g>
<g id="g2638">
<path id="path2640" d="M29.5078 18.76V24.9366" stroke="black" stroke-width="2.75391" stroke-miterlimit="10" stroke-linecap="round" stroke-linejoin="round"/>
</g>
<g id="g2642">
<path id="path2644" d="M35.0156 21.0549V23.5597" stroke="black" stroke-width="2.75391" stroke-miterlimit="10" stroke-linecap="round" stroke-linejoin="round"/>
</g>
</g>
</g>
</g>
</g>
</g>
</g>
<defs>
<clipPath id="clip0_2864_1041">
<rect width="47" height="47" fill="white" transform="translate(0.5 0.243164)"/>
</clipPath>
</defs>
</svg>
