<svg width="41" height="49" viewBox="0 0 41 49" fill="none" xmlns="http://www.w3.org/2000/svg">
<path d="M40.7322 18.0672C40.7322 17.4395 40.2232 16.9305 39.5954 16.9305C38.9677 16.9305 38.4587 17.4395 38.4587 18.0672V46.4699H8.75587V8.22852H28.6196C29.2474 8.22852 29.7564 7.71957 29.7564 7.0918C29.7564 6.46403 29.2474 5.95508 28.6196 5.95508H7.61914C6.99137 5.95508 6.48242 6.46403 6.48242 7.0918V47.6066C6.48242 48.2344 6.99137 48.7433 7.61914 48.7433H39.5954C40.2232 48.7433 40.7322 48.2344 40.7322 47.6066V18.0672Z" fill="black"/>
<path d="M29.4334 6.29776L40.3996 17.2641C40.8435 17.708 40.8436 18.4277 40.3997 18.8715C40.1779 19.0934 39.8869 19.2044 39.596 19.2044L28.6201 19.2045C27.9923 19.2045 27.4834 18.6955 27.4834 18.0678V7.0918C27.4834 6.46403 27.9923 5.95508 28.6201 5.95508C28.9389 5.95508 29.227 6.0863 29.4334 6.29776ZM36.8519 16.931L29.7568 9.83581V16.931H36.8519Z" fill="black"/>
<path d="M7.61904 42.7163C8.24681 42.7163 8.75576 42.2073 8.75576 41.5795C8.75576 40.9518 8.24681 40.4428 7.61904 40.4428H3.04395V2.51661H32.7468V12.3559C32.7468 12.9836 33.2558 13.4926 33.8835 13.4926C34.5113 13.4926 35.0203 12.9836 35.0203 12.3559V1.37989C35.0203 0.752115 34.5113 0.243164 33.8835 0.243164H1.90723C1.27946 0.243164 0.770508 0.752115 0.770508 1.37989V41.5795C0.770508 42.2073 1.27946 42.7163 1.90723 42.7163H7.61904Z" fill="black"/>
<path d="M14.9629 26.5608C14.3351 26.5608 13.8262 27.0697 13.8262 27.6975C13.8262 28.3253 14.3351 28.8342 14.9629 28.8342H32.9478C33.5756 28.8342 34.0846 28.3253 34.0846 27.6975C34.0846 27.0697 33.5756 26.5608 32.9478 26.5608H14.9629Z" fill="black"/>
<path d="M14.9629 33.2903C14.3351 33.2903 13.8262 33.7992 13.8262 34.427C13.8262 35.0548 14.3351 35.5637 14.9629 35.5637H32.9478C33.5756 35.5637 34.0846 35.0548 34.0846 34.427C34.0846 33.7992 33.5756 33.2903 32.9478 33.2903H14.9629Z" fill="black"/>
<path d="M14.9629 40.0197C14.3351 40.0197 13.8262 40.5286 13.8262 41.1564C13.8262 41.7841 14.3351 42.2931 14.9629 42.2931H32.9478C33.5756 42.2931 34.0846 41.7841 34.0846 41.1564C34.0846 40.5286 33.5756 40.0197 32.9478 40.0197H14.9629Z" fill="black"/>
<path d="M13.8262 21.3752C13.8262 22.003 14.3351 22.5119 14.9629 22.5119C15.5907 22.5119 16.0996 22.003 16.0996 21.3752V15.8423C16.0996 15.3291 16.3104 14.8616 16.6499 14.5223C16.9892 14.1828 17.4566 13.9721 17.9698 13.9721C18.4831 13.9721 18.9507 14.1828 19.2901 14.5223C19.6295 14.8617 19.8403 15.3292 19.8403 15.8423V21.3752C19.8403 22.003 20.3492 22.5119 20.977 22.5119C21.6048 22.5119 22.1137 22.003 22.1137 21.3752V15.8423C22.1137 14.7016 21.6478 13.6654 20.8974 12.915C20.147 12.1644 19.1106 11.6986 17.97 11.6986C16.8293 11.6986 15.7928 12.1645 15.0426 12.915C14.292 13.6653 13.8262 14.7016 13.8262 15.8423L13.8262 21.3752Z" fill="black"/>
<path d="M14.9629 16.6626C14.3351 16.6626 13.8262 17.1715 13.8262 17.7993C13.8262 18.4271 14.3351 18.936 14.9629 18.936H20.977C21.6048 18.936 22.1137 18.4271 22.1137 17.7993C22.1137 17.1715 21.6048 16.6626 20.977 16.6626H14.9629Z" fill="black"/>
<path d="M23.5205 21.3842C23.5205 22.012 24.0295 22.521 24.6572 22.521C25.285 22.521 25.794 22.012 25.794 21.3842V16.7242C25.794 16.0965 25.285 15.5875 24.6572 15.5875C24.0295 15.5875 23.5205 16.0965 23.5205 16.7242V21.3842Z" fill="black"/>
<path d="M23.5205 13.8324C23.5205 14.4601 24.0295 14.9691 24.6572 14.9691C25.285 14.9691 25.794 14.4601 25.794 13.8324V12.8265C25.794 12.1988 25.285 11.6898 24.6572 11.6898C24.0295 11.6898 23.5205 12.1988 23.5205 12.8265V13.8324Z" fill="black"/>
</svg>
