<svg width="54" height="54" viewBox="0 0 54 54" fill="none" xmlns="http://www.w3.org/2000/svg">
<path d="M11.3002 43.8568H7.14651C5.08508 43.8568 3.4082 42.18 3.4082 40.1185V16.0272C3.4082 13.9658 5.08508 12.2889 7.14651 12.2889H28.4466C29.135 12.2889 29.6928 12.8467 29.6928 13.535C29.6928 14.2234 29.135 14.7811 28.4466 14.7811H7.14651C6.45937 14.7811 5.90041 15.3401 5.90041 16.0272V40.1185C5.90041 40.8057 6.45937 41.3646 7.14651 41.3646H11.3002C11.9885 41.3646 12.5463 41.9224 12.5463 42.6107C12.5463 43.2991 11.9885 43.8568 11.3002 43.8568Z" fill="black"/>
<path d="M37.8833 50.5028H13.792C11.7306 50.5028 10.0537 48.826 10.0537 46.7645V22.6732C10.0537 20.6118 11.7306 18.9349 13.792 18.9349H29.709C30.3974 18.9349 30.9551 19.4927 30.9551 20.181C30.9551 20.8694 30.3974 21.4271 29.709 21.4271H13.792C13.1049 21.4271 12.5459 21.9861 12.5459 22.6732V46.7645C12.5459 47.4517 13.1049 48.0106 13.792 48.0106H37.8833C38.5704 48.0106 39.1294 47.4517 39.1294 46.7645V30.4573C39.1294 29.769 39.6872 29.2112 40.3755 29.2112C41.0639 29.2112 41.6216 29.769 41.6216 30.4573V46.7645C41.6216 48.826 39.9447 50.5028 37.8833 50.5028Z" fill="black"/>
<path d="M25.838 43.8568C20.3412 43.8568 15.8691 39.3848 15.8691 33.888V32.2266C15.8691 31.5382 16.4269 30.9805 17.1152 30.9805C17.8036 30.9805 18.3613 31.5382 18.3613 32.2266V33.888C18.3613 38.0105 21.7155 41.3646 25.838 41.3646C29.9604 41.3646 33.3146 38.0105 33.3146 33.888V32.2266C33.3146 31.5382 33.8723 30.9805 34.5607 30.9805C35.249 30.9805 35.8068 31.5382 35.8068 32.2266V33.888C35.8068 39.3848 31.3347 43.8568 25.838 43.8568Z" fill="black"/>
<path d="M25.8379 38.8724C23.0894 38.8724 20.8535 36.6366 20.8535 33.888V28.9036C20.8535 26.155 23.0894 23.9192 25.8379 23.9192C28.5865 23.9192 30.8223 26.155 30.8223 28.9036V33.888C30.8223 36.6366 28.5865 38.8724 25.8379 38.8724ZM25.8379 26.4114C24.4636 26.4114 23.3457 27.5293 23.3457 28.9036V33.888C23.3457 35.2623 24.4636 36.3802 25.8379 36.3802C27.2122 36.3802 28.3301 35.2623 28.3301 33.888V28.9036C28.3301 27.5293 27.2122 26.4114 25.8379 26.4114Z" fill="black"/>
<path d="M25.8379 50.5027C25.1495 50.5027 24.5918 49.945 24.5918 49.2566V42.6107C24.5918 41.9224 25.1495 41.3646 25.8379 41.3646C26.5263 41.3646 27.084 41.9224 27.084 42.6107V49.2566C27.084 49.945 26.5263 50.5027 25.8379 50.5027Z" fill="black"/>
<path d="M38.9263 26.8175C32.4013 26.8175 27.0928 21.5089 27.0928 14.984C27.0928 8.45896 32.4013 3.15045 38.9263 3.15045C45.4513 3.15045 50.7598 8.45896 50.7598 14.984C50.7598 21.5089 45.4513 26.8175 38.9263 26.8175ZM38.9263 5.64265C33.7756 5.64265 29.585 9.83324 29.585 14.984C29.585 20.1347 33.7756 24.3253 38.9263 24.3253C44.077 24.3253 48.2676 20.1347 48.2676 14.984C48.2676 9.83324 44.077 5.64265 38.9263 5.64265Z" fill="black"/>
<path d="M32.0772 17.8917C31.3888 17.8917 30.8311 17.334 30.8311 16.6456V13.3227C30.8311 12.6343 31.3888 12.0766 32.0772 12.0766C32.7655 12.0766 33.3233 12.6343 33.3233 13.3227V16.6456C33.3233 17.334 32.7655 17.8917 32.0772 17.8917Z" fill="black"/>
<path d="M36.6426 20.5914C35.9542 20.5914 35.3965 20.0337 35.3965 19.3453V10.6226C35.3965 9.93427 35.9542 9.37653 36.6426 9.37653C37.3309 9.37653 37.8887 9.93427 37.8887 10.6226V19.3453C37.8887 20.0337 37.3309 20.5914 36.6426 20.5914Z" fill="black"/>
<path d="M41.21 22.0454C40.5216 22.0454 39.9639 21.4876 39.9639 20.7993V9.16901C39.9639 8.48066 40.5216 7.92291 41.21 7.92291C41.8983 7.92291 42.4561 8.48066 42.4561 9.16901V20.7993C42.4561 21.4876 41.8983 22.0454 41.21 22.0454Z" fill="black"/>
<path d="M45.7754 17.8917C45.087 17.8917 44.5293 17.334 44.5293 16.6456V13.3227C44.5293 12.6343 45.087 12.0766 45.7754 12.0766C46.4638 12.0766 47.0215 12.6343 47.0215 13.3227V16.6456C47.0215 17.334 46.4638 17.8917 45.7754 17.8917Z" fill="black"/>
</svg>
