<svg width="47" height="49" viewBox="0 0 47 49" fill="none" xmlns="http://www.w3.org/2000/svg">
<path fill-rule="evenodd" clip-rule="evenodd" d="M8.74931 12.4508H21.747C22.4256 12.4508 22.9763 11.9001 22.9763 11.2215C22.9763 10.5429 22.4256 9.99219 21.747 9.99219H8.74931C8.07074 9.99219 7.52002 10.5429 7.52002 11.2215C7.52002 11.9001 8.07074 12.4508 8.74931 12.4508Z" fill="black"/>
<path fill-rule="evenodd" clip-rule="evenodd" d="M8.74931 21.2494H21.747C22.4256 21.2494 22.9763 20.6986 22.9763 20.0201C22.9763 19.3415 22.4256 18.7908 21.747 18.7908H8.74931C8.07074 18.7908 7.52002 19.3415 7.52002 20.0201C7.52002 20.6986 8.07074 21.2494 8.74931 21.2494Z" fill="black"/>
<path fill-rule="evenodd" clip-rule="evenodd" d="M8.74931 30.0478H21.747C22.4256 30.0478 22.9763 29.4971 22.9763 28.8185C22.9763 28.14 22.4256 27.5892 21.747 27.5892H8.74931C8.07074 27.5892 7.52002 28.14 7.52002 28.8185C7.52002 29.4971 8.07074 30.0478 8.74931 30.0478Z" fill="black"/>
<path fill-rule="evenodd" clip-rule="evenodd" d="M8.74931 38.8463H21.747C22.4256 38.8463 22.9763 38.2956 22.9763 37.617C22.9763 36.9384 22.4256 36.3877 21.747 36.3877H8.74931C8.07074 36.3877 7.52002 36.9384 7.52002 37.617C7.52002 38.2956 8.07074 38.8463 8.74931 38.8463Z" fill="black"/>
<path d="M27.287 12.718C28.1135 12.718 28.7834 12.048 28.7834 11.2216C28.7834 10.3951 28.1135 9.7251 27.287 9.7251C26.4605 9.7251 25.7905 10.3951 25.7905 11.2216C25.7905 12.048 26.4605 12.718 27.287 12.718Z" fill="black"/>
<path d="M27.287 21.5165C28.1135 21.5165 28.7834 20.8465 28.7834 20.02C28.7834 19.1935 28.1135 18.5236 27.287 18.5236C26.4605 18.5236 25.7905 19.1935 25.7905 20.02C25.7905 20.8465 26.4605 21.5165 27.287 21.5165Z" fill="black"/>
<path d="M27.287 30.3149C28.1135 30.3149 28.7834 29.645 28.7834 28.8185C28.7834 27.992 28.1135 27.322 27.287 27.322C26.4605 27.322 25.7905 27.992 25.7905 28.8185C25.7905 29.645 26.4605 30.3149 27.287 30.3149Z" fill="black"/>
<path fill-rule="evenodd" clip-rule="evenodd" d="M36.217 27.1254C30.2655 27.1254 25.4336 31.9573 25.4336 37.9087C25.4336 43.8618 30.2655 48.6937 36.217 48.6937C42.1684 48.6937 47.0003 43.8618 47.0003 37.9087C47.0003 31.9573 42.1684 27.1254 36.217 27.1254ZM36.217 29.584C40.8112 29.584 44.5417 33.3144 44.5417 37.9087C44.5417 42.5046 40.8112 46.2351 36.217 46.2351C31.6227 46.2351 27.8922 42.5046 27.8922 37.9087C27.8922 33.3144 31.6227 29.584 36.217 29.584Z" fill="black"/>
<path fill-rule="evenodd" clip-rule="evenodd" d="M34.1826 48.279C34.6744 48.0856 34.9874 47.5955 34.9579 47.0661C34.9268 46.5383 34.5613 46.0876 34.0499 45.9499C30.5046 44.9944 27.8919 41.7539 27.8919 37.9087C27.8919 33.4357 31.4274 29.7806 35.8561 29.5921C36.5134 29.5643 37.033 29.0217 37.033 28.3645V4.75057C37.033 3.5557 36.5576 2.40836 35.7119 1.56261C34.8678 0.718491 33.7204 0.243164 32.5256 0.243164C26.0136 0.243164 11.5177 0.243164 5.00741 0.243164C3.8109 0.243164 2.66519 0.718491 1.81944 1.56261C0.975326 2.40836 0.5 3.5557 0.5 4.75057V44.088C0.5 45.2828 0.975326 46.4302 1.81944 47.2759C2.66519 48.12 3.8109 48.5954 5.00741 48.5954H32.5256C33.0976 48.5954 33.6598 48.4855 34.1826 48.279ZM29.2491 46.1368H5.00741C4.46324 46.1368 3.94202 45.9204 3.55848 45.5369C3.17494 45.1517 2.95859 44.6321 2.95859 44.088V4.75057C2.95859 4.20641 3.17494 3.68682 3.55848 3.30165C3.94202 2.91811 4.46324 2.70175 5.00741 2.70175H32.5256C33.0681 2.70175 33.5893 2.91811 33.9745 3.30165C34.358 3.68682 34.5744 4.20641 34.5744 4.75057V27.2499C29.3999 28.0432 25.4333 32.5162 25.4333 37.9087C25.4333 41.2065 26.9151 44.1584 29.2491 46.1368Z" fill="black"/>
<path fill-rule="evenodd" clip-rule="evenodd" d="M37.4459 38.7053V33.9291C37.4459 33.2506 36.8952 32.6998 36.2166 32.6998C35.538 32.6998 34.9873 33.2506 34.9873 33.9291V38.7053C34.9873 39.3839 35.538 39.9346 36.2166 39.9346C36.8952 39.9346 37.4459 39.3839 37.4459 38.7053Z" fill="black"/>
<path fill-rule="evenodd" clip-rule="evenodd" d="M35.6019 37.6415L32.4172 39.4805C31.8288 39.8181 31.6272 40.5721 31.9665 41.1589C32.3058 41.7473 33.0581 41.9489 33.6465 41.6096L36.8312 39.7706C37.418 39.4313 37.6196 38.679 37.2819 38.0906C36.9427 37.5038 36.1887 37.3022 35.6019 37.6415Z" fill="black"/>
</svg>
