<svg width="46" height="46" viewBox="0 0 46 46" fill="none" xmlns="http://www.w3.org/2000/svg">
<path d="M6.75 20.2432C6.75 19.5557 7.3125 18.9932 8 18.9932H20.5C21.1875 18.9932 21.75 19.5557 21.75 20.2432C21.75 20.9307 21.1875 21.4932 20.5 21.4932H8C7.3125 21.4932 6.75 20.9307 6.75 20.2432ZM8 15.2432H16.75C17.4375 15.2432 18 14.6807 18 13.9932C18 13.3057 17.4375 12.7432 16.75 12.7432H8C7.3125 12.7432 6.75 13.3057 6.75 13.9932C6.75 14.6807 7.3125 15.2432 8 15.2432ZM44.25 28.9932V33.9932C44.25 36.0557 42.5625 37.7432 40.5 37.7432H15.5C13.4375 37.7432 11.75 36.0557 11.75 33.9932V28.9932C11.75 26.9307 13.4375 25.2432 15.5 25.2432H40.5C42.5625 25.2432 44.25 26.9307 44.25 28.9932ZM41.75 28.9932C41.75 28.3057 41.1875 27.7432 40.5 27.7432H15.5C14.8125 27.7432 14.25 28.3057 14.25 28.9932V33.9932C14.25 34.6807 14.8125 35.2432 15.5 35.2432H40.5C41.1875 35.2432 41.75 34.6807 41.75 33.9932V28.9932ZM34.25 40.2432C34.25 42.3057 32.5625 43.9932 30.5 43.9932H5.5C3.4375 43.9932 1.75 42.3057 1.75 40.2432V5.24316C1.75 3.18066 3.4375 1.49316 5.5 1.49316H21.75C21.75 1.49316 21.8 1.50566 21.8375 1.50566C21.9375 1.50566 22.0375 1.53066 22.1375 1.56816C22.1625 1.56816 22.2 1.56816 22.225 1.59316C22.2375 1.59316 22.25 1.61816 22.2625 1.61816C22.4 1.68066 22.525 1.75566 22.625 1.86816L33.875 13.1182C33.9875 13.2307 34.0625 13.3557 34.125 13.4807C34.125 13.4932 34.15 13.5057 34.15 13.5182C34.15 13.5432 34.15 13.5807 34.1625 13.6057C34.2 13.7057 34.2125 13.8057 34.225 13.9182C34.225 13.9432 34.2375 13.9682 34.2375 13.9932V22.7432C34.2375 23.4307 33.675 23.9932 32.9875 23.9932C32.3 23.9932 31.7375 23.4307 31.7375 22.7432V15.2432H24.2375C22.175 15.2432 20.4875 13.5557 20.4875 11.4932V3.99316H5.5C4.8125 3.99316 4.25 4.55566 4.25 5.24316V40.2432C4.25 40.9307 4.8125 41.4932 5.5 41.4932H30.5C31.1875 41.4932 31.75 40.9307 31.75 40.2432C31.75 39.5557 32.3125 38.9932 33 38.9932C33.6875 38.9932 34.25 39.5557 34.25 40.2432ZM23 5.75566V11.4932C23 12.1807 23.5625 12.7432 24.25 12.7432H29.9875L23 5.75566Z" fill="black"/>
</svg>
