<svg width="60" height="60" viewBox="0 0 60 60" fill="none" xmlns="http://www.w3.org/2000/svg">
<path d="M18.625 23.8823C18.625 23.4056 19.0198 23.0192 19.5068 23.0192H25.2924C25.3003 22.0027 25.4104 20.6092 26.4192 19.6445C27.2131 18.8853 28.3014 18.416 29.5 18.416C30.6986 18.416 31.7869 18.8853 32.5808 19.6445C33.5895 20.6092 33.6997 22.0027 33.7075 23.0192H39.4932C39.9802 23.0192 40.375 23.4056 40.375 23.8823C40.375 24.359 39.9802 24.7454 39.4932 24.7454H19.5068C19.0198 24.7454 18.625 24.359 18.625 23.8823Z" fill="white"/>
<path fill-rule="evenodd" clip-rule="evenodd" d="M29.0114 42.5827H29.9886C33.3511 42.5827 35.0323 42.5827 36.1254 41.5122C37.2185 40.4417 37.3304 38.6857 37.554 35.1738L37.8763 30.1134C37.9977 28.2079 38.0584 27.2551 37.51 26.6514C36.9616 26.0476 36.0355 26.0476 34.1834 26.0476H24.8166C22.9644 26.0476 22.0384 26.0476 21.49 26.6514C20.9416 27.2551 21.0023 28.2079 21.1237 30.1134L21.446 35.1738C21.6696 38.6857 21.7815 40.4417 22.8746 41.5122C23.9677 42.5827 25.6489 42.5827 29.0114 42.5827ZM27.3809 30.7271C27.3311 30.2029 26.887 29.8204 26.389 29.8728C25.891 29.9252 25.5276 30.3927 25.5774 30.9169L26.1816 37.2766C26.2314 37.8008 26.6755 38.1833 27.1735 38.1309C27.6715 38.0785 28.0349 37.611 27.9851 37.0867L27.3809 30.7271ZM32.611 29.8728C33.109 29.9252 33.4724 30.3927 33.4226 30.9169L32.8184 37.2766C32.7686 37.8008 32.3245 38.1833 31.8265 38.1309C31.3285 38.0785 30.9651 37.611 31.0149 37.0867L31.6191 30.7271C31.6689 30.2029 32.113 29.8204 32.611 29.8728Z" fill="white"/>
<circle cx="30" cy="30" r="29" stroke="#F6F6F6" stroke-width="2"/>
</svg>
