<svg width="1400" height="142" viewBox="0 0 1308 142" fill="none" xmlns="http://www.w3.org/2000/svg" data-v-75763c10=""><g filter="url(#filter0_d_3443_1183)" data-v-75763c10=""><rect x="13" y="9" width="1400" height="116" rx="12" fill="url(#paint0_linear_3443_1183)" data-v-75763c10=""></rect><rect x="13.5" y="9.5" width="1400" height="115" rx="11.5" stroke="#0066D4" data-v-75763c10=""></rect></g><path d="M829.525 10H1122C1128.08 10 1133 14.9249 1133 21V113C1133 119.075 1128.08 124 1122 124H561C561 124 702.023 119.15 758.5 89.5C838.5 47.5 829.525 10 829.525 10Z" fill="url(#paint1_linear_3443_1183)" data-v-75763c10=""></path><path d="M990.525 10H1283C1289.08 10 1294 14.9249 1294 21V113C1294 119.075 1289.08 124 1283 124H722C722 124 863.023 119.15 919.5 89.5C999.5 47.5 990.525 10 990.525 10Z" fill="url(#paint2_linear_3443_1183)" data-v-75763c10=""></path><defs data-v-75763c10=""><filter id="filter0_d_3443_1183" x="0" y="0" width="1400" height="142" filterUnits="userSpaceOnUse" color-interpolation-filters="sRGB" data-v-75763c10=""><feFlood flood-opacity="0" result="BackgroundImageFix" data-v-75763c10=""></feFlood><feColorMatrix in="SourceAlpha" type="matrix" values="0 0 0 0 0 0 0 0 0 0 0 0 0 0 0 0 0 0 127 0" result="hardAlpha" data-v-75763c10=""></feColorMatrix><feMorphology radius="1" operator="erode" in="SourceAlpha" result="effect1_dropShadow_3443_1183" data-v-75763c10=""></feMorphology><feOffset dy="4" data-v-75763c10=""></feOffset><feGaussianBlur stdDeviation="7" data-v-75763c10=""></feGaussianBlur><feComposite in2="hardAlpha" operator="out" data-v-75763c10=""></feComposite><feColorMatrix type="matrix" values="0 0 0 0 0.899537 0 0 0 0 0.944187 0 0 0 0 1 0 0 0 1 0" data-v-75763c10=""></feColorMatrix><feBlend mode="normal" in2="BackgroundImageFix" result="effect1_dropShadow_3443_1183" data-v-75763c10=""></feBlend><feBlend mode="normal" in="SourceGraphic" in2="effect1_dropShadow_3443_1183" result="shape" data-v-75763c10=""></feBlend></filter><linearGradient id="paint0_linear_3443_1183" x1="13" y1="67" x2="722" y2="49" gradientUnits="userSpaceOnUse" data-v-75763c10=""><stop stop-color="#104582" data-v-75763c10=""></stop><stop offset="1" stop-color="#052A56" data-v-75763c10=""></stop></linearGradient><linearGradient id="paint1_linear_3443_1183" x1="795.5" y1="67" x2="963.5" y2="94" gradientUnits="userSpaceOnUse" data-v-75763c10=""><stop stop-color="#0E3561" data-v-75763c10=""></stop><stop offset="1" stop-color="#153253" data-v-75763c10=""></stop></linearGradient><linearGradient id="paint2_linear_3443_1183" x1="956.5" y1="67" x2="1275" y2="124" gradientUnits="userSpaceOnUse" data-v-75763c10=""><stop stop-color="#0E3561" data-v-75763c10=""></stop><stop offset="1" stop-color="#153253" data-v-75763c10=""></stop></linearGradient></defs></svg>