<svg width="26" height="26" viewBox="0 0 26 26" fill="none" xmlns="http://www.w3.org/2000/svg">
<path d="M17.8479 5.85848L20.1413 8.1519M19.3223 3.83806L13.118 10.0423C12.7965 10.3617 12.5777 10.7699 12.4897 11.2145L11.9166 14.0831L14.7853 13.509C15.2295 13.4201 15.6368 13.2024 15.9575 12.8817L22.1617 6.67748C22.3481 6.49104 22.496 6.26971 22.5969 6.02611C22.6978 5.78252 22.7498 5.52143 22.7498 5.25777C22.7498 4.99411 22.6978 4.73302 22.5969 4.48943C22.496 4.24584 22.3481 4.0245 22.1617 3.83806C21.9753 3.65162 21.7539 3.50373 21.5103 3.40283C21.2667 3.30193 21.0057 3.25 20.742 3.25C20.4783 3.25 20.2173 3.30193 19.9737 3.40283C19.7301 3.50373 19.5087 3.65162 19.3223 3.83806Z" stroke="#0066D4" stroke-width="2.16667" stroke-linecap="round" stroke-linejoin="round"/>
<path d="M20.5834 16.2498V19.4998C20.5834 20.0745 20.3551 20.6256 19.9488 21.0319C19.5424 21.4382 18.9913 21.6665 18.4167 21.6665H6.50004C5.9254 21.6665 5.3743 21.4382 4.96798 21.0319C4.56165 20.6256 4.33337 20.0745 4.33337 19.4998V7.58317C4.33337 7.00853 4.56165 6.45743 4.96798 6.05111C5.3743 5.64478 5.9254 5.4165 6.50004 5.4165H9.75004" stroke="#0066D4" stroke-width="2.16667" stroke-linecap="round" stroke-linejoin="round"/>
</svg>
