<svg xmlns="http://www.w3.org/2000/svg" width="17" height="18" viewBox="0 0 17 18" fill="none">
    <path d="M8.32582 14.1083C8.1934 14.2407 8.01383 14.3151 7.82659 14.3151C7.63935 14.3151 7.45978 14.2407 7.32737 14.1083L3.09067 9.87164C2.95829 9.73922 2.88393 9.55965 2.88393 9.37241C2.88393 9.18518 2.95829 9.00561 3.09067 8.87319L7.32737 4.63649C7.46054 4.50786 7.63891 4.43669 7.82405 4.4383C8.00919 4.43991 8.18629 4.51417 8.31721 4.64509C8.44813 4.77601 8.5224 4.95311 8.524 5.13826C8.52561 5.3234 8.45444 5.50176 8.32582 5.63494L5.29446 8.6663L13.4755 8.6663C13.6628 8.6663 13.8424 8.74069 13.9748 8.87311C14.1072 9.00554 14.1816 9.18514 14.1816 9.37241C14.1816 9.55969 14.1072 9.73929 13.9748 9.87171C13.8424 10.0041 13.6628 10.0785 13.4755 10.0785L5.29446 10.0785L8.32582 13.1099C8.45819 13.2423 8.53256 13.4219 8.53256 13.6091C8.53256 13.7963 8.45819 13.9759 8.32582 14.1083Z" fill="#1C1C1C"/>
</svg>