<svg width="61" height="61" viewBox="0 0 61 61" fill="none" xmlns="http://www.w3.org/2000/svg">
    <ellipse cx="29.1658" cy="31.8554" rx="29.0681" ry="29.0681" fill="url(#paint0_radial_855_1692)"/>
    <g filter="url(#filter0_i_855_1692)">
        <circle cx="33.6008" cy="26.9871" r="26.6008" fill="url(#paint1_linear_855_1692)"/>
    </g>
    <g clip-path="url(#clip0_855_1692)">
        <path d="M35.4102 24.1403V26.163C35.4102 26.5354 35.7122 26.8374 36.0845 26.8374H41.4786C41.851 26.8374 42.1528 26.5354 42.1528 26.163V24.1403C42.1528 23.7679 41.851 23.4659 41.4786 23.4659H36.0845C35.7122 23.4659 35.4102 23.7679 35.4102 24.1403Z" fill="white"/>
        <path d="M42.1531 29.3062C41.7812 29.3062 41.4789 29.0037 41.4789 28.6319V28.1858H36.0848V28.6319C36.0848 29.0037 35.7822 29.3062 35.4104 29.3062C34.2951 29.3062 33.3877 30.2136 33.3877 31.3289V36.3635C33.3877 37.4788 34.2951 38.3862 35.4104 38.3862H42.1531C43.2684 38.3862 44.1758 37.4788 44.1758 36.3635V31.3289C44.1758 30.2136 43.2684 29.3062 42.1531 29.3062ZM40.4899 33.9223H39.456V34.9941C39.456 35.3664 39.1542 35.6684 38.7818 35.6684C38.4095 35.6684 38.1075 35.3664 38.1075 34.9941V33.9223H37.0736C36.7012 33.9223 36.3994 33.6205 36.3994 33.2481C36.3994 32.8757 36.7012 32.5737 37.0736 32.5737H38.1075V31.5777C38.1075 31.2054 38.4095 30.9036 38.7818 30.9036C39.1542 30.9036 39.456 31.2054 39.456 31.5777V32.5737H40.4899C40.8623 32.5737 41.1643 32.8757 41.1643 33.2481C41.1643 33.6205 40.8623 33.9223 40.4899 33.9223Z" fill="white"/>
        <path d="M35.4102 15.7963V19.417H39.0308L35.4102 15.7963Z" fill="white"/>
        <path d="M27.3196 20.0912C27.3196 19.7193 27.0171 19.417 26.6452 19.417H25.5215V20.7655H26.6452C27.0171 20.7655 27.3196 20.463 27.3196 20.0912Z" fill="white"/>
        <path d="M34.0466 26.178V24.1552C34.0466 23.0399 34.954 22.1324 36.0693 22.1324H39.4407V20.7656H34.7359C34.3635 20.7656 34.0615 20.4636 34.0615 20.0912V15.3864H23.4828C23.1104 15.3864 22.8086 15.6882 22.8086 16.0605V34.041C22.8086 34.4134 23.1104 34.7154 23.4828 34.7154H32.0237V30.4899C32.0237 28.9873 33.0124 27.712 34.373 27.2778C34.1668 26.9609 34.0466 26.5835 34.0466 26.178ZM24.1722 18.7427C24.1722 18.3703 24.4742 18.0685 24.8466 18.0685H26.6445C27.76 18.0685 28.6674 18.9759 28.6674 20.0912C28.6674 21.2065 27.76 22.1141 26.6445 22.1141H26.5676L28.0559 23.6023L28.9145 22.7599C29.1801 22.4991 29.6071 22.5031 29.8678 22.769C30.1288 23.0348 30.1247 23.4618 29.8589 23.7225L29.0094 24.5559L29.9117 25.4582C30.1751 25.7214 30.1751 26.1483 29.9117 26.4117C29.7801 26.5433 29.6074 26.6091 29.4349 26.6091C29.2624 26.6091 29.0898 26.5433 28.9582 26.4117L28.0469 25.5003L27.1134 26.4163C26.9823 26.5449 26.8116 26.6091 26.6413 26.6091C26.4666 26.6091 26.292 26.5417 26.16 26.4071C25.8991 26.1413 25.9031 25.7143 26.169 25.4536L27.0934 24.5467L25.5209 22.9743V24.7212C25.5209 25.0935 25.2189 25.3955 24.8466 25.3955C24.4742 25.3955 24.1724 25.0935 24.1724 24.7212V18.7427H24.1722ZM28.2178 32.0034H24.8466C24.4742 32.0034 24.1722 31.7014 24.1722 31.3291C24.1722 30.9567 24.4742 30.6549 24.8466 30.6549H28.2178C28.5902 30.6549 28.8922 30.9567 28.8922 31.3291C28.8922 31.7014 28.5902 32.0034 28.2178 32.0034ZM30.0159 29.3063H24.8466C24.4742 29.3063 24.1722 29.0043 24.1722 28.632C24.1722 28.2596 24.4742 27.9578 24.8466 27.9578H30.0159C30.3883 27.9578 30.6903 28.2596 30.6903 28.632C30.6903 29.0043 30.3883 29.3063 30.0159 29.3063Z" fill="white"/>
    </g>
    <defs>
        <filter id="filter0_i_855_1692" x="7" y="0.386353" width="53.2012" height="60.2015" filterUnits="userSpaceOnUse" color-interpolation-filters="sRGB">
            <feFlood flood-opacity="0" result="BackgroundImageFix"/>
            <feBlend mode="normal" in="SourceGraphic" in2="BackgroundImageFix" result="shape"/>
            <feColorMatrix in="SourceAlpha" type="matrix" values="0 0 0 0 0 0 0 0 0 0 0 0 0 0 0 0 0 0 127 0" result="hardAlpha"/>
            <feMorphology radius="2" operator="erode" in="SourceAlpha" result="effect1_innerShadow_855_1692"/>
            <feOffset dy="7"/>
            <feGaussianBlur stdDeviation="5"/>
            <feComposite in2="hardAlpha" operator="arithmetic" k2="-1" k3="1"/>
            <feColorMatrix type="matrix" values="0 0 0 0 1 0 0 0 0 1 0 0 0 0 1 0 0 0 0.65 0"/>
            <feBlend mode="normal" in2="shape" result="effect1_innerShadow_855_1692"/>
        </filter>
        <radialGradient id="paint0_radial_855_1692" cx="0" cy="0" r="1" gradientUnits="userSpaceOnUse" gradientTransform="translate(29.1658 31.8554) rotate(138.551) scale(29.2446)">
            <stop offset="0.456389" stop-color="#ACBAC3"/>
            <stop offset="1" stop-color="#D3D9DD" stop-opacity="0"/>
        </radialGradient>
        <linearGradient id="paint1_linear_855_1692" x1="33.6008" y1="0.386353" x2="33.6008" y2="53.5879" gradientUnits="userSpaceOnUse">
            <stop stop-color="#FAE36D"/>
            <stop offset="1" stop-color="#F5BF33"/>
        </linearGradient>
        <clipPath id="clip0_855_1692">
            <rect width="23" height="23" fill="white" transform="translate(22 15.3864)"/>
        </clipPath>
    </defs>
</svg>
