<svg xmlns="http://www.w3.org/2000/svg" width="18" height="18" viewBox="0 0 18 18" fill="none">
    <path d="M9.24254 4.34123C9.37496 4.20886 9.55453 4.13449 9.74177 4.13449C9.92901 4.13449 10.1086 4.20886 10.241 4.34123L14.4777 8.57793C14.6101 8.71035 14.6844 8.88992 14.6844 9.07716C14.6844 9.26439 14.6101 9.44396 14.4777 9.57638L10.241 13.8131C10.1078 13.9417 9.92945 14.0129 9.74431 14.0113C9.55917 14.0097 9.38207 13.9354 9.25115 13.8045C9.12023 13.6736 9.04596 13.4965 9.04436 13.3113C9.04275 13.1262 9.11392 12.9478 9.24254 12.8146L12.2739 9.78327H4.09284C3.90556 9.78327 3.72596 9.70888 3.59354 9.57646C3.46111 9.44403 3.38672 9.26443 3.38672 9.07716C3.38672 8.88988 3.46111 8.71028 3.59354 8.57786C3.72596 8.44543 3.90556 8.37104 4.09284 8.37104H12.2739L9.24254 5.33968C9.11017 5.20726 9.0358 5.02769 9.0358 4.84046C9.0358 4.65322 9.11017 4.47365 9.24254 4.34123Z" fill="#1C1C1C"/>
</svg>